# AST/ASF file generated using VICON BodyLanguage
# -----------------------------------------------
:version 1.10
:name VICON
:units
  mass 1.0
  length 0.45
  angle deg
:documentation
   .ast/.asf automatically generated from VICON data using
   VICON BodyBuilder and BodyLanguage model FoxedUp or BRILLIANT.MOD
:root
   order TX TY TZ RX RY RZ
   axis XYZ
   position 0 0 0  
   orientation 0 0 0 
:bonedata
  begin
     id 1 
     name lhipjoint
     direction 0.576517 -0.752066 0.319413 
     length 2.45433 
     axis 0 0 0  XYZ
  end
  begin
     id 2 
     name lfemur
     direction 0.34202 -0.939693 0  
     length 7.54459  
     axis 0 0 20  XYZ
    dof rx ry rz
    limits (-160.0 20.0)
           (-70.0 70.0)
           (-60.0 70.0)
  end
  begin
     id 3 
     name ltibia
     direction 0.34202 -0.939693 0   
     length 7.73986   
     axis 0 0 20   XYZ
    dof rx
    limits (-10.0 170.0)
  end
  begin
     id 4 
     name lfoot
     direction 0.090693 -0.249177 0.964202   
     length 2.28437   
     axis -90 7.62852e-016 20   XYZ
    dof rx rz
    limits (-45.0 90.0)
           (-70.0 20.0)
  end
  begin
     id 5 
     name ltoes
     direction 1.5356e-011 -4.21928e-011 1   
     length 1.14243   
     axis -90 7.62852e-016 20   XYZ
    dof rx
    limits (-90.0 20.0)
  end
  begin
     id 6 
     name rhipjoint
     direction -0.573937 -0.753736 0.320122   
     length 2.44889  
     axis 0 0 0  XYZ 
  end
  begin
     id 7 
     name rfemur
     direction -0.34202 -0.939693 0   
     length 7.50166   
     axis 0 0 -20   XYZ
    dof rx ry rz
    limits (-160.0 20.0)
           (-70.0 70.0)
           (-70.0 60.0)
  end
  begin
     id 8 
     name rtibia
     direction -0.34202 -0.939693 0   
     length 7.54266   
     axis 0 0 -20   XYZ
    dof rx
    limits (-10.0 170.0)
 end
 begin
     id 9 
     name rfoot
     direction -0.114017 -0.31326 0.942798   
     length 2.34212  
     axis -90 -7.62852e-016 -20   XYZ
    dof rx rz
    limits (-45.0 90.0)
           (-20.0 70.0)
  end
  begin
     id 10 
     name rtoes
     direction -1.53557e-011 -4.21867e-011 1   
     length 1.16246   
     axis -90 -7.62852e-016 -20   XYZ
    dof rx
    limits (-90.0 20.0)
  end
  begin
     id 11 
     name lowerback
     direction -0.0228371 0.999155 -0.034167   
     length 2.0537   
     axis 0 0 0   XYZ
    dof rx ry rz
    limits (-20.0 45.0)
           (-30.0 30.0)
           (-30.0 30.0)
  end
  begin
     id 12 
     name upperback
     direction 0.0198981 0.999794 0.00389455   
     length 2.05302   
     axis 0 0 0   XYZ
    dof rx ry rz
    limits (-20.0 45.0)
           (-30.0 30.0)
           (-30.0 30.0)
  end
  begin
     id 13 
     name thorax
     direction 0.0304566 0.99935 0.0192987   
     length 2.05315   
     axis 0 0 0   XYZ
    dof rx ry rz
    limits (-20.0 45.0)
           (-30.0 30.0)
           (-30.0 30.0)
  end
  begin
     id 14 
     name lowerneck
     direction -0.0196762 0.99417 0.106017   
     length 1.82056   
     axis 0 0 0   XYZ
    dof rx ry rz
    limits (-20.0 45.0)
           (-30.0 30.0)
           (-30.0 30.0)
  end
  begin
     id 15 
     name upperneck
     direction 0.00517787 0.9802 -0.197944   
     length 1.83835   
     axis 0 0 0   XYZ
    dof rx ry rz
    limits (-20.0 45.0)
           (-30.0 30.0)
           (-30.0 30.0)
  end
  begin
     id 16
     name head
     direction 0.00211419 0.996945 -0.078081  
     length 1.85629  
     axis 0 0 0   XYZ
    dof rx ry rz
    limits (-20.0 45.0)
           (-30.0 30.0)
           (-30.0 30.0)
  end
  begin
     id 17 
     name lclavicle
     direction 0.930001 0.365811 -0.0357824  
     length 3.81961  
     axis 0 0 0   XYZ
    dof ry rz
    limits (-20.0 10.0)
           (0.0 20.0)
  end
  begin
     id 18 
     name lhumerus
     direction 1 -4.48968e-011 -3.06644e-027   
     length 5.14507   
     axis 180 -30 -90   XYZ
    dof rx ry rz
    limits (-60.0 90.0)
           (-90.0 90.0)
           (-90.0 90.0)
  end
  begin
     id 19
     name lradius
     direction 1 -4.48965e-011 9.06925e-028   
     length 3.50646   
     axis 180 -30 -90   XYZ
    dof rx
    limits (-10.0 170.0)
  end
  begin
     id 20
     name lwrist
     direction 1 -4.48957e-011 1.03922e-027   
     length 1.75323   
     axis -2.56395e-016 90 90   XYZ
    dof ry
    limits (-180.0 0.0)
 end
  begin
     id 21 
     name lhand
     direction 1 -4.48967e-011 2.08017e-027   
     length 0.629969   
     axis -1.32723e-015 90 90   XYZ
    dof rx rz
    limits (-90.0 90.0)
           (-45.0 45.0)
  end
  begin
     id 22 
     name lfingers
     direction 1 -4.49089e-011 4.20095e-027   
     length 0.507897   
     axis -2.6545e-015 90 90   XYZ
    dof rx
    limits (0.0 90.0)
  end
  begin
     id 23
     name lthumb
     direction 0.707107 -6.35001e-011 0.707107   
     length 0.729241   
     axis -90 45 5.05613e-014   XYZ
    dof rx rz
    limits (-45.0 45.0)
           (-45.0 45.0)
  end
  begin
     id 24 
     name rclavicle
     direction -0.881882 0.464123 -0.0829113   
     length 3.47515  
     axis 0 0 0   XYZ 
    dof ry rz
    limits (-10.0 20.0)
           (-20.0 0.0)
  end
  begin
     id 25 
     name rhumerus
     direction -1 -4.48961e-011 -1.55672e-027  
     length 5.232   
     axis 180 30 90   XYZ
    dof rx ry rz
    limits (-90.0 60.0)
           (-90.0 90.0)
           (-90.0 90.0)
  end
  begin
     id 26 
     name rradius
     direction -1 -4.48963e-011 6.18178e-029   
     length 3.65641   
     axis 180 30 90   XYZ
    dof rx
    limits (-10.0 170.0)
  end
  begin
     id 27 
     name rwrist
     direction -1 -4.48982e-011 1.04136e-027   
     length 1.8282   
     axis -2.56395e-016 -90 -90   XYZ
    dof ry
    limits (-180.0 0.0)
  end
  begin
     id 28
     name rhand
     direction -1 -4.48929e-011 2.07378e-027   
     length 0.656807   
     axis -1.32723e-015 -90 -90   XYZ
    dof rx rz
    limits (-90.0 90.0)
           (-45.0 45.0)
  end
  begin
     id 29
     name rfingers
     direction -1 -4.489e-011 4.13816e-027   
     length 0.529535   
     axis -2.6545e-015 -90 -90   XYZ
    dof rx
    limits (0.0 90.0)
  end
  begin
     id 30
     name rthumb
     direction -0.707107 -6.34843e-011 0.707107   
     length 0.760309   
     axis -90 -45 -5.05613e-014   XYZ
    dof rx rz
    limits (-45.0 45.0)
           (-45.0 45.0)
  end
:hierarchy
  begin
    root lhipjoint rhipjoint lowerback
    lhipjoint lfemur
    lfemur ltibia
    ltibia lfoot
    lfoot ltoes
    rhipjoint rfemur
    rfemur rtibia
    rtibia rfoot
    rfoot rtoes
    lowerback upperback
    upperback thorax
    thorax lowerneck lclavicle rclavicle
    lowerneck upperneck
    upperneck head
    lclavicle lhumerus
    lhumerus lradius
    lradius lwrist
    lwrist lhand lthumb
    lhand lfingers
    rclavicle rhumerus
    rhumerus rradius
    rradius rwrist
    rwrist rhand rthumb
    rhand rfingers
  end

#!OML:ASF H:\ManfredETheater\Project 1\Capture day 1\Session 1\subject.ASF
:FULLY-SPECIFIED
:DEGREES
1
root 0.62966 15.3455 40.0511 -154.728 4.07434 -176.952
lowerback 15.7907 4.09484 5.22114
upperback 0.0140055 6.63622 0.879268
thorax -8.34578 3.07119 -3.47795
lowerneck -12.6415 -4.79296 -5.4208
upperneck -2.27299 -6.07445 1.69486
head 1.65879 -3.14915 1.13946
rclavicle 5.48646e-014 7.95139e-016
rhumerus -26.3094 22.646 -79.0768
rradius 122.731
rwrist -9.8497
rhand -25.662 9.0668
rfingers 7.12502
rthumb 0.872207 -20.9112
lclavicle 5.48646e-014 7.95139e-016
lhumerus -90.6884 -19.1045 80.4929
lradius 93.7283
lwrist 11.1737
lhand -24.6536 -12.7116
lfingers 7.12502
lthumb 1.84608 17.2602
rfemur 20.8615 5.05104 24.2437
rtibia 1.90833e-014
rfoot 42.3896 -3.88464
rtoes -36.6364
lfemur -88.3282 6.83775 -20.8785
ltibia 68.3975
lfoot -7.36559 -13.4316
ltoes -12.1516
2
root 0.661132 15.3781 39.505 -154.57 3.77352 -176.815
lowerback 15.5514 4.10449 5.3057
upperback -0.0643628 6.63195 0.762467
thorax -8.27287 3.06164 -3.62861
lowerneck -12.5274 -4.8941 -5.38102
upperneck -2.30509 -6.21537 2.00123
head 1.64498 -3.20743 1.22556
rclavicle -6.36111e-015 -3.4191e-014
rhumerus -27.373 23.0665 -80.0176
rradius 122.405
rwrist -9.85518
rhand -25.6072 8.84665
rfingers 7.12502
rthumb 0.92509 -21.1311
lclavicle -6.36111e-015 -3.4191e-014
lhumerus -90.9333 -17.7422 80.4041
lradius 94.5181
lwrist 11.2902
lhand -24.7386 -12.0301
lfingers 7.12502
lthumb 1.76404 17.9423
rfemur 17.255 4.78026 24.6925
rtibia 8.29609
rfoot 41.0472 -5.21437
rtoes -21.9105
lfemur -87.4562 6.89694 -21.4935
ltibia 68.0887
lfoot -7.08303 -13.3763
ltoes -12.1695
3
root 0.692561 15.4076 38.9596 -154.605 3.41061 -176.738
lowerback 15.4335 4.08975 5.44851
upperback 0.0522192 6.61508 0.628458
thorax -8.04862 3.05826 -3.82778
lowerneck -12.6948 -5.02382 -5.27623
upperneck -2.38926 -6.40424 2.23748
head 1.65961 -3.29809 1.26927
rclavicle 3.18055e-015 -6.36111e-014
rhumerus -28.3946 23.0784 -81.1614
rradius 121.613
rwrist -9.53022
rhand -25.2695 8.59723
rfingers 7.12502
rthumb 1.25131 -21.3788
lclavicle 3.18055e-015 -6.36111e-014
lhumerus -90.5136 -16.4315 80.3952
lradius 95.1517
lwrist 11.7724
lhand -24.8131 -11.8302
lfingers 7.12502
lthumb 1.69206 18.1429
rfemur 14.1883 4.45302 25.0251
rtibia 15.6325
rfoot 39.0615 -7.51098
rtoes -8.78391
lfemur -86.2292 6.91285 -22.0298
ltibia 68.4287
lfoot -6.93758 -13.603
ltoes -11.6351
4
root 0.727496 15.4296 38.4261 -154.48 3.35083 -176.541
lowerback 15.3165 4.16126 5.37261
upperback 0.0847151 6.68188 0.579594
thorax -7.94342 3.0978 -3.83747
lowerneck -12.7065 -5.08697 -5.2818
upperneck -2.55144 -6.49906 2.44059
head 1.6205 -3.34328 1.33134
rclavicle -3.18055e-014 -7.15625e-015
rhumerus -29.521 23.304 -82.5063
rradius 120.379
rwrist -9.34515
rhand -24.9483 8.28746
rfingers 7.12502
rthumb 1.56147 -21.6866
lclavicle -3.18055e-014 -7.15625e-015
lhumerus -89.933 -14.8645 80.6986
lradius 95.7335
lwrist 12.1655
lhand -25.3251 -11.5124
lfingers 7.12502
lthumb 1.1976 18.464
rfemur 11.8246 3.35604 24.9647
rtibia 20.7966
rfoot 36.557 -8.31679
rtoes -2.92202
lfemur -84.9156 7.22858 -22.4283
ltibia 68.8955
lfoot -6.67622 -13.8554
ltoes -11.4838
5
root 0.760683 15.4642 37.8901 -154.637 3.07196 -176.341
lowerback 15.7031 4.06038 5.35587
upperback 0.0733228 6.59337 0.723283
thorax -8.20132 3.04969 -3.69722
lowerneck -12.7187 -5.06469 -5.48475
upperneck -2.62829 -6.44938 2.57859
head 1.60953 -3.31643 1.41465
rclavicle 3.45885e-014 4.45278e-014
rhumerus -31.5844 22.9736 -84.2803
rradius 118.183
rwrist -7.99446
rhand -24.5555 7.40843
rfingers 7.12502
rthumb 1.94085 -22.5625
lclavicle 3.45885e-014 4.45278e-014
lhumerus -88.4638 -12.9181 81.4784
lradius 95.9923
lwrist 12.5361
lhand -25.3835 -11.2952
lfingers 7.12502
lthumb 1.14114 18.6815
rfemur 9.31958 1.78249 24.93
rtibia 25.8247
rfoot 33.4355 -8.19647
rtoes -9.79717
lfemur -82.5418 7.2273 -22.2741
ltibia 69.7541
lfoot -7.5804 -14.852
ltoes -5.74179
6
root 0.793636 15.4813 37.3563 -154.689 2.7983 -176.214
lowerback 15.8615 3.99536 5.36288
upperback 0.0954402 6.52273 0.732089
thorax -8.27311 3.01387 -3.69152
lowerneck -12.7986 -5.0895 -5.55012
upperneck -2.73447 -6.48085 2.77462
head 1.60102 -3.33003 1.48684
rclavicle 2.0276e-014 -1.66979e-014
rhumerus -33.156 22.6327 -85.7947
rradius 116.393
rwrist -7.42821
rhand -24.2547 6.86037
rfingers 7.12502
rthumb 2.23141 -23.1077
lclavicle 2.0276e-014 -1.66979e-014
lhumerus -87.2832 -11.2681 82.0532
lradius 96.366
lwrist 12.921
lhand -25.4043 -11.1502
lfingers 7.12502
lthumb 1.12111 18.8266
rfemur 7.0359 0.637617 24.9759
rtibia 30.7741
rfoot 31.3938 -9.01196
rtoes -4.52994
lfemur -80.6557 7.27298 -22.4127
ltibia 70.4214
lfoot -8.78087 -15.3866
ltoes -1.91986
